<svg width="88" height="88" viewBox="0 0 88 88" fill="none" xmlns="http://www.w3.org/2000/svg">
<g filter="url(#filter0_d_12_974)">
<circle cx="44" cy="44" r="24" fill="#66D36E"/>
</g>
<g clip-path="url(#clip0_12_974)">
<path d="M36.318 38.5929C35.9002 39.0174 35.5687 39.5214 35.3425 40.076C35.1164 40.6307 35 41.2251 35 41.8254C35 42.4258 35.1164 43.0202 35.3425 43.5749C35.5687 44.1295 35.9002 44.6334 36.318 45.058L44.0001 52.8619L51.682 45.058C52.5259 44.2006 53.0001 43.0379 53.0001 41.8254C53.0001 40.613 52.5259 39.4502 51.682 38.5929C50.8381 37.7356 49.6935 37.254 48.5001 37.254C47.3065 37.254 46.1619 37.7356 45.318 38.5929L44.0001 39.9318L42.682 38.5929C42.2642 38.1684 41.7681 37.8317 41.2221 37.602C40.6762 37.3722 40.091 37.254 39.5 37.254C38.9091 37.254 38.3239 37.3722 37.7779 37.602C37.232 37.8317 36.7359 38.1684 36.318 38.5929Z" fill="white"/>
</g>
<defs>
<filter id="filter0_d_12_974" x="0" y="0" width="88" height="88" filterUnits="userSpaceOnUse" color-interpolation-filters="sRGB">
<feFlood flood-opacity="0" result="BackgroundImageFix"/>
<feColorMatrix in="SourceAlpha" type="matrix" values="0 0 0 0 0 0 0 0 0 0 0 0 0 0 0 0 0 0 127 0" result="hardAlpha"/>
<feOffset/>
<feGaussianBlur stdDeviation="10"/>
<feColorMatrix type="matrix" values="0 0 0 0 0 0 0 0 0 0 0 0 0 0 0 0 0 0 0.8 0"/>
<feBlend mode="normal" in2="BackgroundImageFix" result="effect1_dropShadow_12_974"/>
<feBlend mode="normal" in="SourceGraphic" in2="effect1_dropShadow_12_974" result="shape"/>
</filter>
<clipPath id="clip0_12_974">
<rect width="18" height="16" fill="white" transform="translate(35 37)"/>
</clipPath>
</defs>
</svg>
